<svg class="rich-terminal" viewBox="0 0 1238 586.8" xmlns="http://www.w3.org/2000/svg">
    <!-- Generated with Rich https://www.textualize.io -->
    <style>

    @font-face {
        font-family: "Fira Code";
        src: local("FiraCode-Regular"),
                url("https://cdnjs.cloudflare.com/ajax/libs/firacode/6.2.0/woff2/FiraCode-Regular.woff2") format("woff2"),
                url("https://cdnjs.cloudflare.com/ajax/libs/firacode/6.2.0/woff/FiraCode-Regular.woff") format("woff");
        font-style: normal;
        font-weight: 400;
    }
    @font-face {
        font-family: "Fira Code";
        src: local("FiraCode-Bold"),
                url("https://cdnjs.cloudflare.com/ajax/libs/firacode/6.2.0/woff2/FiraCode-Bold.woff2") format("woff2"),
                url("https://cdnjs.cloudflare.com/ajax/libs/firacode/6.2.0/woff/FiraCode-Bold.woff") format("woff");
        font-style: bold;
        font-weight: 700;
    }

    .terminal-3761675036-matrix {
        font-family: Fira Code, monospace;
        font-size: 20px;
        line-height: 24.4px;
        font-variant-east-asian: full-width;
    }

    .terminal-3761675036-title {
        font-size: 18px;
        font-weight: bold;
        font-family: arial;
    }

    .terminal-3761675036-r1 { fill: #c5c8c6 }
.terminal-3761675036-r2 { fill: #f4005f;font-weight: bold }
.terminal-3761675036-r3 { fill: #af5fd7;font-weight: bold }
.terminal-3761675036-r4 { fill: #8787d7;font-weight: bold }
.terminal-3761675036-r5 { fill: #875fff;font-weight: bold }
.terminal-3761675036-r6 { fill: #5f5fff;font-weight: bold }
.terminal-3761675036-r7 { fill: #ab0a48 }
.terminal-3761675036-r8 { fill: #8e6224 }
.terminal-3761675036-r9 { fill: #e0e0e0;font-weight: bold }
.terminal-3761675036-r10 { fill: #ddedf9;font-weight: bold }
.terminal-3761675036-r11 { fill: #92c5ec;font-weight: bold }
.terminal-3761675036-r12 { fill: #a5a5a5 }
.terminal-3761675036-r13 { fill: #a5a5a5;font-weight: bold }
    </style>

    <defs>
    <clipPath id="terminal-3761675036-clip-terminal">
      <rect x="0" y="0" width="1219.0" height="535.8" />
    </clipPath>
    <clipPath id="terminal-3761675036-line-0">
    <rect x="0" y="1.5" width="1220" height="24.65"/>
            </clipPath>
<clipPath id="terminal-3761675036-line-1">
    <rect x="0" y="25.9" width="1220" height="24.65"/>
            </clipPath>
<clipPath id="terminal-3761675036-line-2">
    <rect x="0" y="50.3" width="1220" height="24.65"/>
            </clipPath>
<clipPath id="terminal-3761675036-line-3">
    <rect x="0" y="74.7" width="1220" height="24.65"/>
            </clipPath>
<clipPath id="terminal-3761675036-line-4">
    <rect x="0" y="99.1" width="1220" height="24.65"/>
            </clipPath>
<clipPath id="terminal-3761675036-line-5">
    <rect x="0" y="123.5" width="1220" height="24.65"/>
            </clipPath>
<clipPath id="terminal-3761675036-line-6">
    <rect x="0" y="147.9" width="1220" height="24.65"/>
            </clipPath>
<clipPath id="terminal-3761675036-line-7">
    <rect x="0" y="172.3" width="1220" height="24.65"/>
            </clipPath>
<clipPath id="terminal-3761675036-line-8">
    <rect x="0" y="196.7" width="1220" height="24.65"/>
            </clipPath>
<clipPath id="terminal-3761675036-line-9">
    <rect x="0" y="221.1" width="1220" height="24.65"/>
            </clipPath>
<clipPath id="terminal-3761675036-line-10">
    <rect x="0" y="245.5" width="1220" height="24.65"/>
            </clipPath>
<clipPath id="terminal-3761675036-line-11">
    <rect x="0" y="269.9" width="1220" height="24.65"/>
            </clipPath>
<clipPath id="terminal-3761675036-line-12">
    <rect x="0" y="294.3" width="1220" height="24.65"/>
            </clipPath>
<clipPath id="terminal-3761675036-line-13">
    <rect x="0" y="318.7" width="1220" height="24.65"/>
            </clipPath>
<clipPath id="terminal-3761675036-line-14">
    <rect x="0" y="343.1" width="1220" height="24.65"/>
            </clipPath>
<clipPath id="terminal-3761675036-line-15">
    <rect x="0" y="367.5" width="1220" height="24.65"/>
            </clipPath>
<clipPath id="terminal-3761675036-line-16">
    <rect x="0" y="391.9" width="1220" height="24.65"/>
            </clipPath>
<clipPath id="terminal-3761675036-line-17">
    <rect x="0" y="416.3" width="1220" height="24.65"/>
            </clipPath>
<clipPath id="terminal-3761675036-line-18">
    <rect x="0" y="440.7" width="1220" height="24.65"/>
            </clipPath>
<clipPath id="terminal-3761675036-line-19">
    <rect x="0" y="465.1" width="1220" height="24.65"/>
            </clipPath>
<clipPath id="terminal-3761675036-line-20">
    <rect x="0" y="489.5" width="1220" height="24.65"/>
            </clipPath>
    </defs>

    <rect fill="#292929" stroke="rgba(255,255,255,0.35)" stroke-width="1" x="1" y="1" width="1236" height="584.8" rx="8"/><text class="terminal-3761675036-title" fill="#c5c8c6" text-anchor="middle" x="618" y="27">SELECTA</text>
            <g transform="translate(26,22)">
            <circle cx="0" cy="0" r="7" fill="#ff5f57"/>
            <circle cx="22" cy="0" r="7" fill="#febc2e"/>
            <circle cx="44" cy="0" r="7" fill="#28c840"/>
            </g>
        
    <g transform="translate(9, 41)" clip-path="url(#terminal-3761675036-clip-terminal)">
    <rect fill="#1e1e1e" x="0" y="1.5" width="1220" height="24.65" shape-rendering="crispEdges"/><rect fill="#1e1e1e" x="0" y="25.9" width="1220" height="24.65" shape-rendering="crispEdges"/><rect fill="#1e1e1e" x="0" y="50.3" width="1220" height="24.65" shape-rendering="crispEdges"/><rect fill="#1e1e1e" x="0" y="74.7" width="122" height="24.65" shape-rendering="crispEdges"/><rect fill="#1e1e1e" x="122" y="74.7" width="976" height="24.65" shape-rendering="crispEdges"/><rect fill="#1e1e1e" x="1098" y="74.7" width="122" height="24.65" shape-rendering="crispEdges"/><rect fill="#1e1e1e" x="0" y="99.1" width="122" height="24.65" shape-rendering="crispEdges"/><rect fill="#1e1e1e" x="122" y="99.1" width="24.4" height="24.65" shape-rendering="crispEdges"/><rect fill="#1e1e1e" x="146.4" y="99.1" width="695.4" height="24.65" shape-rendering="crispEdges"/><rect fill="#1e1e1e" x="841.8" y="99.1" width="231.8" height="24.65" shape-rendering="crispEdges"/><rect fill="#1e1e1e" x="1073.6" y="99.1" width="24.4" height="24.65" shape-rendering="crispEdges"/><rect fill="#1e1e1e" x="1098" y="99.1" width="122" height="24.65" shape-rendering="crispEdges"/><rect fill="#1e1e1e" x="0" y="123.5" width="122" height="24.65" shape-rendering="crispEdges"/><rect fill="#1e1e1e" x="122" y="123.5" width="24.4" height="24.65" shape-rendering="crispEdges"/><rect fill="#1e1e1e" x="146.4" y="123.5" width="695.4" height="24.65" shape-rendering="crispEdges"/><rect fill="#1e1e1e" x="841.8" y="123.5" width="231.8" height="24.65" shape-rendering="crispEdges"/><rect fill="#1e1e1e" x="1073.6" y="123.5" width="24.4" height="24.65" shape-rendering="crispEdges"/><rect fill="#1e1e1e" x="1098" y="123.5" width="122" height="24.65" shape-rendering="crispEdges"/><rect fill="#1e1e1e" x="0" y="147.9" width="122" height="24.65" shape-rendering="crispEdges"/><rect fill="#1e1e1e" x="122" y="147.9" width="24.4" height="24.65" shape-rendering="crispEdges"/><rect fill="#1e1e1e" x="146.4" y="147.9" width="695.4" height="24.65" shape-rendering="crispEdges"/><rect fill="#1e1e1e" x="841.8" y="147.9" width="231.8" height="24.65" shape-rendering="crispEdges"/><rect fill="#1e1e1e" x="1073.6" y="147.9" width="24.4" height="24.65" shape-rendering="crispEdges"/><rect fill="#1e1e1e" x="1098" y="147.9" width="122" height="24.65" shape-rendering="crispEdges"/><rect fill="#1e1e1e" x="0" y="172.3" width="122" height="24.65" shape-rendering="crispEdges"/><rect fill="#1e1e1e" x="122" y="172.3" width="24.4" height="24.65" shape-rendering="crispEdges"/><rect fill="#1e1e1e" x="146.4" y="172.3" width="695.4" height="24.65" shape-rendering="crispEdges"/><rect fill="#1e1e1e" x="841.8" y="172.3" width="231.8" height="24.65" shape-rendering="crispEdges"/><rect fill="#1e1e1e" x="1073.6" y="172.3" width="24.4" height="24.65" shape-rendering="crispEdges"/><rect fill="#1e1e1e" x="1098" y="172.3" width="122" height="24.65" shape-rendering="crispEdges"/><rect fill="#1e1e1e" x="0" y="196.7" width="122" height="24.65" shape-rendering="crispEdges"/><rect fill="#1e1e1e" x="122" y="196.7" width="24.4" height="24.65" shape-rendering="crispEdges"/><rect fill="#1e1e1e" x="146.4" y="196.7" width="695.4" height="24.65" shape-rendering="crispEdges"/><rect fill="#1e1e1e" x="841.8" y="196.7" width="231.8" height="24.65" shape-rendering="crispEdges"/><rect fill="#1e1e1e" x="1073.6" y="196.7" width="24.4" height="24.65" shape-rendering="crispEdges"/><rect fill="#1e1e1e" x="1098" y="196.7" width="122" height="24.65" shape-rendering="crispEdges"/><rect fill="#1e1e1e" x="0" y="221.1" width="122" height="24.65" shape-rendering="crispEdges"/><rect fill="#1e1e1e" x="122" y="221.1" width="24.4" height="24.65" shape-rendering="crispEdges"/><rect fill="#1e1e1e" x="146.4" y="221.1" width="695.4" height="24.65" shape-rendering="crispEdges"/><rect fill="#1e1e1e" x="841.8" y="221.1" width="231.8" height="24.65" shape-rendering="crispEdges"/><rect fill="#1e1e1e" x="1073.6" y="221.1" width="24.4" height="24.65" shape-rendering="crispEdges"/><rect fill="#1e1e1e" x="1098" y="221.1" width="122" height="24.65" shape-rendering="crispEdges"/><rect fill="#1e1e1e" x="0" y="245.5" width="122" height="24.65" shape-rendering="crispEdges"/><rect fill="#1e1e1e" x="122" y="245.5" width="24.4" height="24.65" shape-rendering="crispEdges"/><rect fill="#1e1e1e" x="146.4" y="245.5" width="451.4" height="24.65" shape-rendering="crispEdges"/><rect fill="#1e1e1e" x="597.8" y="245.5" width="475.8" height="24.65" shape-rendering="crispEdges"/><rect fill="#1e1e1e" x="1073.6" y="245.5" width="24.4" height="24.65" shape-rendering="crispEdges"/><rect fill="#1e1e1e" x="1098" y="245.5" width="122" height="24.65" shape-rendering="crispEdges"/><rect fill="#1e1e1e" x="0" y="269.9" width="122" height="24.65" shape-rendering="crispEdges"/><rect fill="#1e1e1e" x="122" y="269.9" width="24.4" height="24.65" shape-rendering="crispEdges"/><rect fill="#1e1e1e" x="146.4" y="269.9" width="927.2" height="24.65" shape-rendering="crispEdges"/><rect fill="#1e1e1e" x="1073.6" y="269.9" width="24.4" height="24.65" shape-rendering="crispEdges"/><rect fill="#1e1e1e" x="1098" y="269.9" width="122" height="24.65" shape-rendering="crispEdges"/><rect fill="#1e1e1e" x="0" y="294.3" width="122" height="24.65" shape-rendering="crispEdges"/><rect fill="#1e1e1e" x="122" y="294.3" width="24.4" height="24.65" shape-rendering="crispEdges"/><rect fill="#272727" x="146.4" y="294.3" width="12.2" height="24.65" shape-rendering="crispEdges"/><rect fill="#272727" x="158.6" y="294.3" width="902.8" height="24.65" shape-rendering="crispEdges"/><rect fill="#272727" x="1061.4" y="294.3" width="12.2" height="24.65" shape-rendering="crispEdges"/><rect fill="#1e1e1e" x="1073.6" y="294.3" width="24.4" height="24.65" shape-rendering="crispEdges"/><rect fill="#1e1e1e" x="1098" y="294.3" width="122" height="24.65" shape-rendering="crispEdges"/><rect fill="#1e1e1e" x="0" y="318.7" width="122" height="24.65" shape-rendering="crispEdges"/><rect fill="#1e1e1e" x="122" y="318.7" width="24.4" height="24.65" shape-rendering="crispEdges"/><rect fill="#272727" x="146.4" y="318.7" width="12.2" height="24.65" shape-rendering="crispEdges"/><rect fill="#2d3740" x="158.6" y="318.7" width="61" height="24.65" shape-rendering="crispEdges"/><rect fill="#2d3740" x="219.6" y="318.7" width="146.4" height="24.65" shape-rendering="crispEdges"/><rect fill="#2d3740" x="366" y="318.7" width="97.6" height="24.65" shape-rendering="crispEdges"/><rect fill="#2d3740" x="463.6" y="318.7" width="366" height="24.65" shape-rendering="crispEdges"/><rect fill="#2d3740" x="829.6" y="318.7" width="231.8" height="24.65" shape-rendering="crispEdges"/><rect fill="#272727" x="1061.4" y="318.7" width="12.2" height="24.65" shape-rendering="crispEdges"/><rect fill="#1e1e1e" x="1073.6" y="318.7" width="24.4" height="24.65" shape-rendering="crispEdges"/><rect fill="#1e1e1e" x="1098" y="318.7" width="122" height="24.65" shape-rendering="crispEdges"/><rect fill="#1e1e1e" x="0" y="343.1" width="122" height="24.65" shape-rendering="crispEdges"/><rect fill="#1e1e1e" x="122" y="343.1" width="24.4" height="24.65" shape-rendering="crispEdges"/><rect fill="#272727" x="146.4" y="343.1" width="12.2" height="24.65" shape-rendering="crispEdges"/><rect fill="#0178d4" x="158.6" y="343.1" width="61" height="24.65" shape-rendering="crispEdges"/><rect fill="#0178d4" x="219.6" y="343.1" width="146.4" height="24.65" shape-rendering="crispEdges"/><rect fill="#0178d4" x="366" y="343.1" width="97.6" height="24.65" shape-rendering="crispEdges"/><rect fill="#0178d4" x="463.6" y="343.1" width="12.2" height="24.65" shape-rendering="crispEdges"/><rect fill="#0178d4" x="475.8" y="343.1" width="341.6" height="24.65" shape-rendering="crispEdges"/><rect fill="#0178d4" x="817.4" y="343.1" width="12.2" height="24.65" shape-rendering="crispEdges"/><rect fill="#0178d4" x="829.6" y="343.1" width="231.8" height="24.65" shape-rendering="crispEdges"/><rect fill="#272727" x="1061.4" y="343.1" width="12.2" height="24.65" shape-rendering="crispEdges"/><rect fill="#1e1e1e" x="1073.6" y="343.1" width="24.4" height="24.65" shape-rendering="crispEdges"/><rect fill="#1e1e1e" x="1098" y="343.1" width="122" height="24.65" shape-rendering="crispEdges"/><rect fill="#1e1e1e" x="0" y="367.5" width="122" height="24.65" shape-rendering="crispEdges"/><rect fill="#1e1e1e" x="122" y="367.5" width="24.4" height="24.65" shape-rendering="crispEdges"/><rect fill="#272727" x="146.4" y="367.5" width="12.2" height="24.65" shape-rendering="crispEdges"/><rect fill="#272727" x="158.6" y="367.5" width="902.8" height="24.65" shape-rendering="crispEdges"/><rect fill="#272727" x="1061.4" y="367.5" width="12.2" height="24.65" shape-rendering="crispEdges"/><rect fill="#1e1e1e" x="1073.6" y="367.5" width="24.4" height="24.65" shape-rendering="crispEdges"/><rect fill="#1e1e1e" x="1098" y="367.5" width="122" height="24.65" shape-rendering="crispEdges"/><rect fill="#1e1e1e" x="0" y="391.9" width="122" height="24.65" shape-rendering="crispEdges"/><rect fill="#1e1e1e" x="122" y="391.9" width="24.4" height="24.65" shape-rendering="crispEdges"/><rect fill="#1e1e1e" x="146.4" y="391.9" width="927.2" height="24.65" shape-rendering="crispEdges"/><rect fill="#1e1e1e" x="1073.6" y="391.9" width="24.4" height="24.65" shape-rendering="crispEdges"/><rect fill="#1e1e1e" x="1098" y="391.9" width="122" height="24.65" shape-rendering="crispEdges"/><rect fill="#1e1e1e" x="0" y="416.3" width="122" height="24.65" shape-rendering="crispEdges"/><rect fill="#1e1e1e" x="122" y="416.3" width="24.4" height="24.65" shape-rendering="crispEdges"/><rect fill="#1e1e1e" x="146.4" y="416.3" width="48.8" height="24.65" shape-rendering="crispEdges"/><rect fill="#1e1e1e" x="195.2" y="416.3" width="61" height="24.65" shape-rendering="crispEdges"/><rect fill="#1e1e1e" x="256.2" y="416.3" width="183" height="24.65" shape-rendering="crispEdges"/><rect fill="#1e1e1e" x="439.2" y="416.3" width="12.2" height="24.65" shape-rendering="crispEdges"/><rect fill="#1e1e1e" x="451.4" y="416.3" width="73.2" height="24.65" shape-rendering="crispEdges"/><rect fill="#1e1e1e" x="524.6" y="416.3" width="12.2" height="24.65" shape-rendering="crispEdges"/><rect fill="#1e1e1e" x="536.8" y="416.3" width="109.8" height="24.65" shape-rendering="crispEdges"/><rect fill="#1e1e1e" x="646.6" y="416.3" width="24.4" height="24.65" shape-rendering="crispEdges"/><rect fill="#1e1e1e" x="671" y="416.3" width="122" height="24.65" shape-rendering="crispEdges"/><rect fill="#1e1e1e" x="793" y="416.3" width="61" height="24.65" shape-rendering="crispEdges"/><rect fill="#1e1e1e" x="854" y="416.3" width="85.4" height="24.65" shape-rendering="crispEdges"/><rect fill="#1e1e1e" x="939.4" y="416.3" width="24.4" height="24.65" shape-rendering="crispEdges"/><rect fill="#1e1e1e" x="963.8" y="416.3" width="61" height="24.65" shape-rendering="crispEdges"/><rect fill="#1e1e1e" x="1024.8" y="416.3" width="48.8" height="24.65" shape-rendering="crispEdges"/><rect fill="#1e1e1e" x="1073.6" y="416.3" width="24.4" height="24.65" shape-rendering="crispEdges"/><rect fill="#1e1e1e" x="1098" y="416.3" width="122" height="24.65" shape-rendering="crispEdges"/><rect fill="#1e1e1e" x="0" y="440.7" width="122" height="24.65" shape-rendering="crispEdges"/><rect fill="#1e1e1e" x="122" y="440.7" width="976" height="24.65" shape-rendering="crispEdges"/><rect fill="#1e1e1e" x="1098" y="440.7" width="122" height="24.65" shape-rendering="crispEdges"/><rect fill="#1e1e1e" x="0" y="465.1" width="1220" height="24.65" shape-rendering="crispEdges"/><rect fill="#1e1e1e" x="0" y="489.5" width="1220" height="24.65" shape-rendering="crispEdges"/><rect fill="#1e1e1e" x="0" y="513.9" width="1220" height="24.65" shape-rendering="crispEdges"/>
    <g class="terminal-3761675036-matrix">
    <text class="terminal-3761675036-r1" x="1220" y="20" textLength="12.2" clip-path="url(#terminal-3761675036-line-0)">
</text><text class="terminal-3761675036-r1" x="1220" y="44.4" textLength="12.2" clip-path="url(#terminal-3761675036-line-1)">
</text><text class="terminal-3761675036-r1" x="1220" y="68.8" textLength="12.2" clip-path="url(#terminal-3761675036-line-2)">
</text><text class="terminal-3761675036-r1" x="1220" y="93.2" textLength="12.2" clip-path="url(#terminal-3761675036-line-3)">
</text><text class="terminal-3761675036-r2" x="146.4" y="117.6" textLength="695.4" clip-path="url(#terminal-3761675036-line-4)">███████╗███████╗██╗&#160;&#160;&#160;&#160;&#160;███████╗&#160;██████╗████████╗&#160;█████╗&#160;</text><text class="terminal-3761675036-r1" x="1220" y="117.6" textLength="12.2" clip-path="url(#terminal-3761675036-line-4)">
</text><text class="terminal-3761675036-r2" x="146.4" y="142" textLength="695.4" clip-path="url(#terminal-3761675036-line-5)">██╔════╝██╔════╝██║&#160;&#160;&#160;&#160;&#160;██╔════╝██╔════╝╚══██╔══╝██╔══██╗</text><text class="terminal-3761675036-r1" x="1220" y="142" textLength="12.2" clip-path="url(#terminal-3761675036-line-5)">
</text><text class="terminal-3761675036-r3" x="146.4" y="166.4" textLength="695.4" clip-path="url(#terminal-3761675036-line-6)">███████╗█████╗&#160;&#160;██║&#160;&#160;&#160;&#160;&#160;█████╗&#160;&#160;██║&#160;&#160;&#160;&#160;&#160;&#160;&#160;&#160;██║&#160;&#160;&#160;███████║</text><text class="terminal-3761675036-r1" x="1220" y="166.4" textLength="12.2" clip-path="url(#terminal-3761675036-line-6)">
</text><text class="terminal-3761675036-r4" x="146.4" y="190.8" textLength="695.4" clip-path="url(#terminal-3761675036-line-7)">╚════██║██╔══╝&#160;&#160;██║&#160;&#160;&#160;&#160;&#160;██╔══╝&#160;&#160;██║&#160;&#160;&#160;&#160;&#160;&#160;&#160;&#160;██║&#160;&#160;&#160;██╔══██║</text><text class="terminal-3761675036-r1" x="1220" y="190.8" textLength="12.2" clip-path="url(#terminal-3761675036-line-7)">
</text><text class="terminal-3761675036-r5" x="146.4" y="215.2" textLength="695.4" clip-path="url(#terminal-3761675036-line-8)">███████║███████╗███████╗███████╗╚██████╗&#160;&#160;&#160;██║&#160;&#160;&#160;██║&#160;&#160;██║</text><text class="terminal-3761675036-r1" x="1220" y="215.2" textLength="12.2" clip-path="url(#terminal-3761675036-line-8)">
</text><text class="terminal-3761675036-r6" x="146.4" y="239.6" textLength="695.4" clip-path="url(#terminal-3761675036-line-9)">╚══════╝╚══════╝╚══════╝╚══════╝&#160;╚═════╝&#160;&#160;&#160;╚═╝&#160;&#160;&#160;╚═╝&#160;&#160;╚═╝</text><text class="terminal-3761675036-r1" x="1220" y="239.6" textLength="12.2" clip-path="url(#terminal-3761675036-line-9)">
</text><text class="terminal-3761675036-r7" x="146.4" y="264" textLength="451.4" clip-path="url(#terminal-3761675036-line-10)">░▒▓&#160;your&#160;local&#160;audio&#160;intelligence&#160;▓▒░</text><text class="terminal-3761675036-r1" x="1220" y="264" textLength="12.2" clip-path="url(#terminal-3761675036-line-10)">
</text><text class="terminal-3761675036-r1" x="1220" y="288.4" textLength="12.2" clip-path="url(#terminal-3761675036-line-11)">
</text><text class="terminal-3761675036-r8" x="146.4" y="312.8" textLength="12.2" clip-path="url(#terminal-3761675036-line-12)">╭</text><text class="terminal-3761675036-r8" x="158.6" y="312.8" textLength="902.8" clip-path="url(#terminal-3761675036-line-12)">──────────────────────────────────────────────────────────────────────────</text><text class="terminal-3761675036-r8" x="1061.4" y="312.8" textLength="12.2" clip-path="url(#terminal-3761675036-line-12)">╮</text><text class="terminal-3761675036-r1" x="1220" y="312.8" textLength="12.2" clip-path="url(#terminal-3761675036-line-12)">
</text><text class="terminal-3761675036-r8" x="146.4" y="337.2" textLength="12.2" clip-path="url(#terminal-3761675036-line-13)">│</text><text class="terminal-3761675036-r9" x="219.6" y="337.2" textLength="146.4" clip-path="url(#terminal-3761675036-line-13)">&#160;LIBRARY&#160;&#160;&#160;&#160;</text><text class="terminal-3761675036-r9" x="366" y="337.2" textLength="97.6" clip-path="url(#terminal-3761675036-line-13)">&#160;TRACKS&#160;</text><text class="terminal-3761675036-r9" x="463.6" y="337.2" textLength="366" clip-path="url(#terminal-3761675036-line-13)">&#160;PATH&#160;&#160;&#160;&#160;&#160;&#160;&#160;&#160;&#160;&#160;&#160;&#160;&#160;&#160;&#160;&#160;&#160;&#160;&#160;&#160;&#160;&#160;&#160;&#160;&#160;</text><text class="terminal-3761675036-r8" x="1061.4" y="337.2" textLength="12.2" clip-path="url(#terminal-3761675036-line-13)">│</text><text class="terminal-3761675036-r1" x="1220" y="337.2" textLength="12.2" clip-path="url(#terminal-3761675036-line-13)">
</text><text class="terminal-3761675036-r8" x="146.4" y="361.6" textLength="12.2" clip-path="url(#terminal-3761675036-line-14)">│</text><text class="terminal-3761675036-r10" x="158.6" y="361.6" textLength="61" clip-path="url(#terminal-3761675036-line-14)">&#160;[x]&#160;</text><text class="terminal-3761675036-r10" x="219.6" y="361.6" textLength="146.4" clip-path="url(#terminal-3761675036-line-14)">&#160;demo-crate&#160;</text><text class="terminal-3761675036-r10" x="366" y="361.6" textLength="97.6" clip-path="url(#terminal-3761675036-line-14)">&#160;15/15&#160;&#160;</text><text class="terminal-3761675036-r11" x="475.8" y="361.6" textLength="341.6" clip-path="url(#terminal-3761675036-line-14)">/tmp/selecta-demo/demo-crate</text><text class="terminal-3761675036-r8" x="1061.4" y="361.6" textLength="12.2" clip-path="url(#terminal-3761675036-line-14)">│</text><text class="terminal-3761675036-r1" x="1220" y="361.6" textLength="12.2" clip-path="url(#terminal-3761675036-line-14)">
</text><text class="terminal-3761675036-r8" x="146.4" y="386" textLength="12.2" clip-path="url(#terminal-3761675036-line-15)">╰</text><text class="terminal-3761675036-r8" x="158.6" y="386" textLength="902.8" clip-path="url(#terminal-3761675036-line-15)">──────────────────────────────────────────────────────────────────────────</text><text class="terminal-3761675036-r8" x="1061.4" y="386" textLength="12.2" clip-path="url(#terminal-3761675036-line-15)">╯</text><text class="terminal-3761675036-r1" x="1220" y="386" textLength="12.2" clip-path="url(#terminal-3761675036-line-15)">
</text><text class="terminal-3761675036-r1" x="1220" y="410.4" textLength="12.2" clip-path="url(#terminal-3761675036-line-16)">
</text><text class="terminal-3761675036-r13" x="195.2" y="434.8" textLength="61" clip-path="url(#terminal-3761675036-line-17)">Space</text><text class="terminal-3761675036-r12" x="256.2" y="434.8" textLength="183" clip-path="url(#terminal-3761675036-line-17)">/click&#160;toggle&#160;&#160;</text><text class="terminal-3761675036-r13" x="439.2" y="434.8" textLength="12.2" clip-path="url(#terminal-3761675036-line-17)">A</text><text class="terminal-3761675036-r12" x="451.4" y="434.8" textLength="73.2" clip-path="url(#terminal-3761675036-line-17)">&#160;add&#160;&#160;</text><text class="terminal-3761675036-r13" x="524.6" y="434.8" textLength="12.2" clip-path="url(#terminal-3761675036-line-17)">D</text><text class="terminal-3761675036-r12" x="536.8" y="434.8" textLength="109.8" clip-path="url(#terminal-3761675036-line-17)">&#160;remove&#160;&#160;</text><text class="terminal-3761675036-r13" x="646.6" y="434.8" textLength="24.4" clip-path="url(#terminal-3761675036-line-17)">^a</text><text class="terminal-3761675036-r12" x="671" y="434.8" textLength="122" clip-path="url(#terminal-3761675036-line-17)">&#160;analyze&#160;&#160;</text><text class="terminal-3761675036-r13" x="793" y="434.8" textLength="61" clip-path="url(#terminal-3761675036-line-17)">Enter</text><text class="terminal-3761675036-r12" x="854" y="434.8" textLength="85.4" clip-path="url(#terminal-3761675036-line-17)">&#160;play&#160;&#160;</text><text class="terminal-3761675036-r13" x="939.4" y="434.8" textLength="24.4" clip-path="url(#terminal-3761675036-line-17)">^c</text><text class="terminal-3761675036-r12" x="963.8" y="434.8" textLength="61" clip-path="url(#terminal-3761675036-line-17)">&#160;quit</text><text class="terminal-3761675036-r1" x="1220" y="434.8" textLength="12.2" clip-path="url(#terminal-3761675036-line-17)">
</text><text class="terminal-3761675036-r1" x="1220" y="459.2" textLength="12.2" clip-path="url(#terminal-3761675036-line-18)">
</text><text class="terminal-3761675036-r1" x="1220" y="483.6" textLength="12.2" clip-path="url(#terminal-3761675036-line-19)">
</text><text class="terminal-3761675036-r1" x="1220" y="508" textLength="12.2" clip-path="url(#terminal-3761675036-line-20)">
</text>
    </g>
    </g>
</svg>
